   {
  "accessors": [
    {
      "bufferView": 2,
      "componentType": 5126,
      "count": 304,
      "max": [
        2.612859010696411,
        12.154159545898438,
        2.573164224624634
      ],
      "min": [
        -2.612859010696411,
        0.0,
        -2.573164224624634
      ],
      "type": "VEC3"
    },
    {
      "bufferView": 2,
      "byteOffset": 3648,
      "componentType": 5126,
      "count": 304,
      "max": [
        0.9986257553100586,
        1.0,
        1.0
      ],
      "min": [
        -0.9986256957054138,
        -1.0,
        -1.0
      ],
      "type": "VEC3"
    },
    {
      "bufferView": 3,
      "componentType": 5126,
      "count": 304,
      "max": [
        0.9829047918319702,
        0.9289862513542175,
        0.9889125823974609,
        1.0
      ],
      "min": [
        -0.9815454483032227,
        -0.9983570575714111,
        -1.0,
        1.0
      ],
      "type": "VEC4"
    },
    {
      "bufferView": 1,
      "componentType": 5126,
      "count": 304,
      "max": [
        0.9828112721443176,
        0.9894309043884277
      ],
      "min": [
        0.014827233739197254,
        0.030606389045715332
      ],
      "type": "VEC2"
    },
    {
      "bufferView": 1,
      "byteOffset": 2432,
      "componentType": 5126,
      "count": 304,
      "max": [
        0.9828112721443176,
        0.9894309043884277
      ],
      "min": [
        0.014827233739197254,
        0.030606389045715332
      ],
      "type": "VEC2"
    },
    {
      "bufferView": 1,
      "byteOffset": 4864,
      "componentType": 5126,
      "count": 304,
      "max": [
        0.9828112721443176,
        0.9894309043884277
      ],
      "min": [
        0.014827233739197254,
        0.030606389045715332
      ],
      "type": "VEC2"
    },
    {
      "bufferView": 1,
      "byteOffset": 7296,
      "componentType": 5126,
      "count": 304,
      "max": [
        0.9828112721443176,
        0.9894309043884277
      ],
      "min": [
        0.014827233739197254,
        0.030606389045715332
      ],
      "type": "VEC2"
    },
    {
      "bufferView": 0,
      "componentType": 5125,
      "count": 918,
      "type": "SCALAR"
    }
  ],
  "asset": {
    "extras": {
      "author": "beastybevan (https://sketchfab.com/beastybevan)",
      "license": "CC-BY-4.0 (http://creativecommons.org/licenses/by/4.0/)",
      "source": "https://sketchfab.com/3d-models/cup-and-straw-9c5565b82b88467ea5b8c1b321d33013",
      "title": "Cup and Straw"
    },
    "generator": "Sketchfab-14.24.0",
    "version": "2.0"
  },
  "bufferViews": [
    {
      "buffer": 0,
      "byteLength": 3672,
      "name": "floatBufferViews",
      "target": 34963
    },
    {
      "buffer": 0,
      "byteLength": 9728,
      "byteOffset": 3672,
      "byteStride": 8,
      "name": "floatBufferViews",
      "target": 34962
    },
    {
      "buffer": 0,
      "byteLength": 7296,
      "byteOffset": 13400,
      "byteStride": 12,
      "name": "floatBufferViews",
      "target": 34962
    },
    {
      "buffer": 0,
      "byteLength": 4864,
      "byteOffset": 20696,
      "byteStride": 16,
      "name": "floatBufferViews",
      "target": 34962
    }
  ],
  "buffers": [
    {
      "byteLength": 25560,
      "uri": "scene.bin"
    }
  ],
  "images": [
    {
      "uri": "textures/Material.001_baseColor.png"
    },
    {
      "uri": "textures/Material.001_metallicRoughness.png"
    },
    {
      "uri": "textures/Material.001_normal.png"
    }
  ],
  "materials": [
    {
      "doubleSided": true,
      "name": "Material.001",
      "normalTexture": {
        "index": 2
      },
      "pbrMetallicRoughness": {
        "baseColorFactor": [
          0.9859077665760504,
          0.9859077665760504,
          0.9859077665760504,
          1.0
        ],
        "baseColorTexture": {
          "index": 0
        },
        "metallicFactor": 0.0,
        "metallicRoughnessTexture": {
          "index": 1
        }
      }
    }
  ],
  "meshes": [
    {
      "name": "Object_0",
      "primitives": [
        {
          "attributes": {
            "NORMAL": 1,
            "POSITION": 0,
            "TANGENT": 2,
            "TEXCOORD_0": 3,
            "TEXCOORD_1": 4,
            "TEXCOORD_2": 5,
            "TEXCOORD_3": 6
          },
          "indices": 7,
          "material": 0,
          "mode": 4
        }
      ]
    }
  ],
  "nodes": [
    {
      "children": [
        1
      ],
      "matrix": [
        0.7250992655754089,
        0.0,
        0.0,
        0.0,
        0.0,
        1.6100437995612203e-16,
        -0.7250992655754089,
        0.0,
        0.0,
        0.7250992655754089,
        1.6100437995612203e-16,
        0.0,
        0.0,
        0.0,
        0.0,
        1.0
      ],
      "name": "Sketchfab_model"
    },
    {
      "children": [
        2
      ],
      "name": "root"
    },
    {
      "children": [
        3
      ],
      "matrix": [
        1.0,
        0.0,
        0.0,
        0.0,
        0.0,
        2.220446049250313e-16,
        1.0,
        0.0,
        0.0,
        -1.0,
        2.220446049250313e-16,
        0.0,
        0.0,
        0.0,
        0.0,
        1.0
      ],
      "name": "GLTF_SceneRootNode"
    },
    {
      "children": [
        4
      ],
      "matrix": [
        0.029603134840726852,
        0.0,
        0.0,
        0.0,
        0.0,
        0.029603134840726852,
        0.0,
        0.0,
        0.0,
        0.0,
        0.029603134840726852,
        0.0,
        0.0,
        0.0,
        0.0,
        1.0
      ],
      "name": "Cup_1"
    },
    {
      "mesh": 0,
      "name": "Object_4"
    }
  ],
  "samplers": [
    {
      "magFilter": 9729,
      "minFilter": 9987,
      "wrapS": 10497,
      "wrapT": 10497
    }
  ],
  "scene": 0,
  "scenes": [
    {
      "name": "Sketchfab_Scene",
      "nodes": [
        0
      ]
    }
  ],
  "textures": [
    {
      "sampler": 0,
      "source": 0
    },
    {
      "sampler": 0,
      "source": 1
    },
    {
      "sampler": 0,
      "source": 2
    }
  ]
}
